<?xml version="1.0" encoding="utf-8"?>
<!-- Svg Vector Icons : http://www.onlinewebfonts.com/icon -->
<!DOCTYPE svg PUBLIC "-//W3C//DTD SVG 1.1//EN" "http://www.w3.org/Graphics/SVG/1.1/DTD/svg11.dtd">
<svg version="1.1" xmlns="http://www.w3.org/2000/svg" xmlns:xlink="http://www.w3.org/1999/xlink" x="0px" y="0px" viewBox="0 0 1000 1000" enable-background="new 0 0 1000 1000" xml:space="preserve">
<metadata> Svg Vector Icons : http://www.onlinewebfonts.com/icon </metadata>
<g><path d="M676.4,51.9h-5c-4.1,3-8.5,4.6-13.3,5l-10,6.6l-3.3,1.7c-9,5.9-16.8,10.3-23.3,13.3c-66.4,68.3-94.2,146-83.3,233.3c-15.7,6.1-22.4,2.8-20.2-10v-13.3l3.6-26.6c3.1-11.6,4.8-21.7,5-30.2c4.6-12.9,6.8-25.1,6.6-36.5c3.5-20.1,4.6-36.8,3.3-50.1v-36.5l-3.3-31.8c-4.4-7.6-9.5-13.7-15.2-18.3l-19.9,3.3c-52,24.5-92.5,57.8-121.5,99.9c-8.5,9.2-16.2,16-23.3,20.2h-18.5l-5,1.7h-5c-4.4,1.7-8.9,2.2-13.3,1.7c-17.3,6.5-34,9.2-50.1,8.3l-1.7-3.3c-49.1-24-97.3-35.1-144.8-33.5c-5.3,9.4-5.3,20.6,0,33.5c-33.6,10-59.7,27.1-78.3,51.5l13.3-3.3c1.1-1.3,2.2-1.8,3.3-1.7l6.6-3.3l5-1.7h5l3.3-3.3h5l3.3-1.7h5c14.8-5,28.1-7.2,40.1-6.6c4.4,6.8,7.2,13.5,8.3,19.9c-17,8.5-30.3,16.9-39.9,25.2c-24.5,26-35.1,54.9-31.8,86.6l5,1.7c11.6-30.4,28.9-54.3,51.8-71.7c14.2-10.7,27.5-11.3,39.9-1.7c-39.9,41.7-47.6,86.6-23.3,134.8l3.3-1.7c-3.3-41.1,9.4-73.9,38.2-98.3l11.9-5l3.3,3.3l8.3,14.9l3.3,1.7l3.3,3.3l1.7,6.9l3.3,1.7l1.7,5l3.3,3.3l3.3,5l1.7,5c5,6.6,8.3,12.7,10,18.3c4.2,6.5,7,12.5,8.3,18.3H235c-1.7,1.3-3.3,1.8-5,1.7c-4.4,1.8-8.9,2.4-13.3,1.7c-6.6,3-12.7,4.6-18.3,5v5l3.3,1.7c11.1,7.2,19.9,13.9,26.6,20.2c-10.1,8.3-16.2,18.3-18.3,29.9c10-2.6,19.4-3.7,28.2-3.3v5c-3.1,6.1-4.8,12.7-5,19.9l5,1.7c5.7-4.8,11.3-7.6,16.6-8.3c-4.2,12-5.3,23.2-3.3,33.5c12.2-10.7,22.8-18.5,31.8-23.5h6.6l11.6,1.7l10,1.7l5,3.3c5.3,0.2,9.8,0.7,13.3,1.7l26.9,5.3l-8.6,13.3c10.1-4.1,16.9-2.4,20.2,5c-24.2,19.4-49.7,29.3-76.7,29.9c-4.4-25.8-19.5-35.8-45.1-29.9l-15-30.2C171.4,431,105.3,413.9,33.6,437C7,457.6,6.4,474.8,31.9,488.4h21.6c25.3-8.1,49.2-9.2,71.7-3.3c-3.9,3.5-7.7,5.7-11.6,6.6c-46.5,6.5-80.9,27.6-103.2,63.4c-3.1,30.6,17.3,31.7,61.4,3.3c-7.7,8.3-13.3,16.7-16.6,25.2c1.5,14.4,7,25.5,16.6,33.2l3.3,11.6v10l3.3,19.9l3.3,5l1.7,3.6l3.3,10c1.8,1.3,3,2.9,3.3,5l3.3,3.3l1.9,3.3l3.3,10c1.8,1.1,3,2.2,3.3,3.3l1.7,3.3l3.3,3.3l1.7,5c5.9,5.3,10.3,10.9,13.3,16.6l-1.7,6.6c-18.3,17-26,37-23.3,60.1c3.9,8.9,6.6,16.6,8.3,23.3l3.3,3.3l13.3,23.5c99.6,100.2,209.6,125.7,329.9,76.7l10-6.6c10.7-11.3,20.1-19.6,28.2-25.2h8.3l25.2,11.6l3.3,1.7c7.7,3.5,13.8,6.9,18.3,10.2l8.3,1.7c14.8,5.3,27.5,8.7,38.2,10c-2.6,4.8-5.9,8.1-10,10h-5l-5,3.3l-13.3,1.7l-11.6,3.3c-4.2,0-7.6,1.1-10,3.3c121.4,11.4,228-12.5,319.7-71.7c1.1-1.8,2.2-3,3.3-3.3l1.7-3.3l3.6-3.3l5-1.7c7.6-8.7,14.8-15.3,21.6-19.9l5-5l1.7-5l5-3.3c6.1-11.4,12.7-20.4,19.9-26.9c68.8-140.6,60.5-266.1-24.9-376.4l6.6-10l3.3-3.6l3.3-3.3l5-3.3l1.7-5l3.3-3.3l10-8.3l3.3-5c1.1-1.8,2.2-3,3.3-3.3l1.7-5l3.3-3.3l23.5-38.2c3.5-14.8,7.4-27,11.6-36.8v-6.6c1.8-6.3,3-11.8,3.3-16.6l1.7-3.3v-8.3l1.7-5l1.7-6.9v-11.6c2.2-12.2,3.3-22.1,3.3-29.9l-5,1.7c-4.8,13.7-12,24.7-21.6,33.2c-0.6-64.4-17.8-119.4-51.8-165l-11.6-5l-1.7,10c18.5,58.3,4,101.7-43.5,130.1c-33-110.9-88-167-165-168.3L676.4,51.9z M759.7,102c4.1,0.6,4.6-1.7,1.7-6.6l6.6,5c3.3,3.3,2.8,6.1-1.7,8.3c7.4,0.9,11.9,4.8,13.6,11.6c-7.4-3.9-13-7.7-16.9-11.6c-8.9-2.8-16.1-6.1-21.6-10c-86-14.4-141,32.2-165,139.8l-5,3.3c1.5-14.2,4.8-26.4,10-36.5c1.1-37.5,14.5-71.9,40.1-103.2c19.2-18.1,40.8-28.7,64.8-31.8C717.2,69.3,741.6,79.9,759.7,102L759.7,102z M525,90.4c-10-17.3-27.8-18.5-53.4-3.6c9.2-7.6,18.6-12.6,28.2-14.9C515.8,69.6,524.2,75.8,525,90.4z M508.1,95.4l1.7,8.3l1.7,5v6.6c3.5,19.9,4.6,36.5,3.3,49.8V182l-1.7,3.3v5l-3.3,33.2c-2.8,16.6-5,16.6-6.6,0v-5l-1.7-5v-5l-3.3-10V192l-3.3-5v-5l-3.3-13.6l-1.7-5c-3.9-7.7-6.6-14.4-8.3-19.9l-6.6-5l-11.6,1.7l-5,1.7c-4.6,2.8-9,4.4-13.3,5c-8.7,6.5-16.5,10.9-23.5,13.3c22-31.6,48.1-54.2,78.3-68.1L508.1,95.4z M852.9,290.2l3.3-1.7v-10l1.7-3.3v-11.6c0.6-15,0-27.2-1.7-36.8c36.3-25.6,56.9-59.5,61.7-101.6c5.3,12.9,7.6,24.5,6.6,34.9c10.1,13.5,11.3,9,3.3-13.3l-8.3-21.6l-3.3-13.3h1.7c28,50.7,39.8,101.8,35.1,153.3l-8.6,13.3l-5,3.3l-1.7,5c-8.9,8.9-15.5,16.6-19.9,23.3l10-5l11.6-11.6l3.3-1.7l3.3-5l10.2-8.3c7.2-11.3,13.8-20.2,19.9-26.9c-10,70.1-37.7,126.3-83.3,168.6l-8.3-3.6c-48.3-35.6-99.5-54.4-153.3-56.5h-16.6c-13.8-17-30.5-22.5-50.1-16.6c25.5-21,61-17.2,106.6,11.6v-5c-7.6-8.1-13.1-16-16.6-23.5l-5-3.3l-6.6-10l-6.6-5l-3.3-5l-10-6.6l-11.6-11.6c-1.8-1.1-3-2.2-3.3-3.3c-10-6.5-17.8-12.5-23.5-18.3c9.8-0.6,18.2,0,25.2,1.7l8.3,3.3l6.6,3.3l11.6,5l1.7,3.3l10,3.3l1.7,3.3l11.6,5c10,6.5,20.6,10.9,31.8,13.3l-1.7-6.6l-3.3-5l-1.7-6.6c-7.2-7.9-12.3-15.7-15.2-23.3c-6.3-6.8-10.7-13.6-13.3-20.2l5,3.3l5,1.7l5,5l5.3,1.9l3.3,3.3l5,3.3l5,1.7l3.3,1.7c7,7.7,14.2,13.3,21.6,16.6v-5l-3.3-5l-1.7-5l-3.3-15.2l-3.3-5l-1.7-5l-6.6-16.6l-1.7-5l-1.7-3.3l-3.3-10l-3.3-3.3l-3.3-10c-3.7-4.4-6.6-8.9-8.6-13.3l-11.6-20.2c-5.9-3.7-10.9-8.1-14.9-13.3h5c10.9,4.6,19.8,10.2,26.9,16.6c13.8,7.9,24.4,16.9,31.5,26.9h5c-1.1,1.7-2.2,2.8-3.3,3.3c4.4,2.6,5.5,5.4,3.3,8.3c6.3,0,11.3,5,15,14.9l-1.7-13.3l-3.3-5v-6.6l-10-18.3l-6.6-11.9l-1.7-5l-1.7-6.6l-3.3-5c-4.4-7.2-7.2-13.3-8.3-18.3c-11.1-13.3-18.9-24.9-23.5-34.9c56.1,57.4,83.3,123.4,81.6,198.2L852.9,290.2z M418.2,128.6c-2.6,6.1-5.9,10.5-10,13.3l-1.7,5l-3.3,5l-5,3.3c-4.8,10-10.3,17.8-16.6,23.5c-3,5.7-6.8,10.7-11.6,14.9c-8.3,2.6-15.6,3.7-21.9,3.3h-6.6l-5,1.7h-5l-28.2,5c-6.1,1.8-11.1,3-14.9,3.3l6.6-8.3h11.6l11.6-5h5l11.6-3.3h10L365,187l3.3-5l6.6-5l3.3-5l3.3-5.3l5-3.3c1.1-1.8,2.2-3,3.3-3.3c2.4-5,5.2-8.9,8.3-11.6l3.3-5l3.3-3.3l1.7-3.3l3.3-1.7l23.3-23.3C434.1,119.5,429.1,125.1,418.2,128.6L418.2,128.6z M476.5,146.9c15.3,35.1,22,68.9,19.9,101.6c-1.7-1.1-2.8-2.2-3.3-3.3l-6.6-6.6l-23.3-26.6c-4.6-3.3-7.9-6.6-10-10l-5-1.7l-3.3-3.3c-1.8-1.1-3-2.2-3.3-3.3c-10.7-3.7-19.6-8.7-26.9-14.9c16.6-17.3,34.4-29.1,53.4-35.1L476.5,146.9z M123.4,170.1c49.6-7.4,92.3,3.2,128.1,31.8l5-3.3v5l-5,1.7C213,181.1,173,170,131.7,172.1l-6.6,11.6c-2.2-6.5-3.3-12.1-3.3-16.9C123,167.7,123.6,168.8,123.4,170.1L123.4,170.1z M931.3,197l6.6,13.3c1.3-14-0.9-26.2-6.6-36.5C933.3,182.2,933.3,189.9,931.3,197z M223.3,215.2c-43.2-17.3-84.8-20.7-124.8-10c14.6-7.6,27.9-12,39.9-13.3C170.8,192,199.1,199.7,223.3,215.2z M198.4,246.8h-6.6c-11.1-2-20.6-2.6-28.5-1.7c-26.9,5.7-49.1,16.3-66.4,31.8c19.4-20.7,41.5-32.9,66.4-36.8C177.1,239,188.8,241.2,198.4,246.8z M956.5,293.5c5.3-7.7,8.1-15.5,8.3-23.3C959.8,278.8,957,286.5,956.5,293.5z M206.7,278.6c-35.4,9.4-59.9,29.4-73.3,60.1c10.7-32.7,31.3-53.8,61.7-63.4L206.7,278.6z M489.8,278.6c8.7,12.9,13.1,25.6,13.3,38.2l5,1.7l-5,1.7c-2.6,2.6-5.4,4.2-8.3,5c0.9-19-1.8-35.6-8.3-49.8C488.3,276.4,489.4,277.5,489.8,278.6z M376.6,316.8c16.4,24.7,22.5,50.3,18.3,76.7c-13.1,33.2-39.8,32.7-80-1.7c-19.4-56.5-17.2-94.2,6.6-113.2C348.1,281.2,366.5,293.9,376.6,316.8L376.6,316.8z M273.4,350.3c-11.8-7.2-16.3,0-13.6,21.6h-1.7l10.2,33.2l-5.3,3.3l-8.3-5c-14.8-37.1-15.3-70.9-1.7-101.6C267,307.8,273.8,323.9,273.4,350.3L273.4,350.3z M534.9,333.4l-3.3,1.7l-1.7,3.6c-3.5,2.6-6.3,5.4-8.3,8.3c-7.7,5.7-13.4,11.3-16.9,16.6c27.9-10,51.2-11.1,70-3.3c-26,1.1-43.7,11.6-53.1,31.5l11.6-5c31.6-2.8,52,9.5,61.4,36.8c-17-11.4-34.1-17.6-51.5-18.5l-14.9,10c8.3,3.3,14.4,6.7,18.3,10.2c10.7,11.1,17.3,23.3,19.9,36.5c-4.8-2.8-8.7-6.1-11.6-10c-20.9-24-43.6-32.3-68.4-24.9c-18.6,31.7-37,46.1-55.1,43.2c-12.7,19.2-29.9,23.6-51.5,13.3v5c-58.1,7.6-102-7.4-131.7-44.8l13.3,3.3c16,17.9,35,27.9,56.7,29.9c-43.4-16-56.6-29.3-39.9-39.9c-4.1-12.7-1.8-21.7,6.6-26.9c-8.9,4.6-17.3,6.3-25.2,5c27.9-17.7,56.7-16.5,86.6,3.6l30.2,3.3l3.3-1.7l16.6-1.7l3.3-3.6h5l5-3.3l5-1.7c4.4-3.7,8.9-6.5,13.3-8.3l20.2-11.6c4.8-3,7.6-1.3,8.3,5c15.3-41.7,42-67.8,80-78.3C559.7,314.4,559.1,319.9,534.9,333.4L534.9,333.4z M513.1,330.1c10-0.9,17.8-3.7,23.5-8.3C526.6,324.2,518.8,326.9,513.1,330.1z M351.7,328.4c-6.5,17.9-6.5,35.7,0,53.4l3.3,3.3c3.3,9.4,8.3,17.2,14.9,23.3l10-1.7c5.3-32.1-1.8-58.2-21.6-78.3L351.7,328.4L351.7,328.4z M533.3,345.3l8.3-10.2C551.4,342.3,548.6,345.7,533.3,345.3z M368.3,351.9c-5-4.2-8.9-8.7-11.6-13.3C362.6,341.2,366.5,345.7,368.3,351.9z M703.2,360.3c-24,2.4-44.6,9-61.7,19.9c7.4-16.4,18.5-27.5,33.2-33.2C688.2,345.9,697.7,350.3,703.2,360.3z M363.4,370.2c-5-5.7-6.6-11.8-5-18.3C363.4,357.7,365,363.8,363.4,370.2L363.4,370.2z M268.4,380.2c-3.5-3.3-5.3-7.2-5.3-11.6C267.2,371.5,269,375.4,268.4,380.2z M868.2,416.7l-3.3,1.9l10,6.6c4.1,1.1,5.7,3.9,5,8.3c6.6-1.7,11.1,1.1,13.3,8.3c6.1,3,8.9,7.4,8.3,13.3c7.9,0.9,11.3,5.3,10,13.3l3.3-1.7l1.7,5c1.1,1.7,1.7,3.3,1.7,5l3.3,1.7c2.4,6.5,5.2,11.4,8.3,15c1.7,11.4,4.4,20.9,8.3,28.5l-3.3,5l3.3-3.3c7,50.4,2,95.9-14.9,136.4c9.8-87.3-11.3-160-63.4-218.1c-48.7-48.3-104.7-67.3-168-56.7c-12.7,1.8-15.6,0.2-8.6-5c-15-1.3-11-2.9,11.9-5h-15.2l15.2-5C761,366.1,818.8,381.6,868.2,416.7L868.2,416.7z M546.6,376.9v-1.7l6.6-3.3C562.4,377.6,560.2,379.2,546.6,376.9L546.6,376.9z M729.8,375.2c7,0,7.6-1.1,1.7-3.3L729.8,375.2z M703.2,375.2l-5-1.7C698.4,378.9,700.1,379.4,703.2,375.2z M674.7,385.2c-2.6,1.3-4.8,1.3-6.6,0H674.7z M581.4,408.4c-6.3-6.5-12.9-10.9-19.9-13.3C567.8,401.4,574.4,405.8,581.4,408.4z M253.2,410.1c-10,18.6-23.8,19.2-41.5,1.7c2.4-4.4,8.5-6.6,18.3-6.6C238.6,405.3,246.4,407,253.2,410.1L253.2,410.1z M221.6,413.4l5-1.7c3.5,2.2,6.8,1.7,10-1.7h-13.3L221.6,413.4z M471.6,431.9c9.8-9.4,19.7-15.6,29.9-18.5l-10-1.7C482.3,418,475.6,424.7,471.6,431.9L471.6,431.9z M399.9,433.6c-14,18.1-31.8,22.5-53.4,13.3c6.6,5,12.8,8.3,18.5,10c35.2,38.6,51.8,31.9,49.8-19.9c2.8-5.2,6.1-8.5,10-10l-10-3.3C409.5,428.4,404.5,431.8,399.9,433.6z M261.5,427c-2.6,4.2-4.8,4.2-6.6,0H261.5z M621.6,500.3l3.3,6.6c-5,2.2-8.3,0.6-10-5c9.2-27.3,6.5-52.3-8.3-75C625.4,449.7,630.4,474.1,621.6,500.3L621.6,500.3z M230,493.4c20.7,41,14.6,73.8-18.3,98.5l-8.3,5v5c12-2.6,14.8,0.2,8.3,8.3c-7.2,12.4-17.2,20.1-29.9,23.3v-29.9l-6.9-6.6c-15.3,2.2-26.9-3.4-34.9-16.9c2.4-13.5,7.4-24.5,15-33.2l6.6-6.6c-3,25.8,6,42.5,26.9,50.1c-16.6-17.5-23.9-38.1-21.9-61.7c-5.5,1.7-10.5,3.9-15,6.6c-11.6,19.9-27.7,31-48.2,33.2c-4.6-1.8-8.6-4.6-11.9-8.3c8.1-50.7,44.8-79.6,110.2-86.6c-21.2-6.5-40.1-3.7-56.7,8.3c-15.1-0.9-28.4-4.8-39.9-11.6H88.3c-3.3,1.3-6.6,1.8-10,1.7c-17.3,5.2-33.4,6.3-48.2,3.3c-4.1-6.3-5.7-12.4-5-18.3l3.3-5C44.3,438.6,62.1,432,81.6,432C142.7,433.5,192.1,453.9,230,493.4L230,493.4z M536.6,451.9H530c-9.8-3.3-17.6-8.3-23.5-14.9c-5.5,0-10,0.6-13.3,1.7c0.7-3,1.9-5.2,3.3-6.6C512.5,434.5,525.9,441.2,536.6,451.9L536.6,451.9z M408.2,460.2l-3.3,14.9c-22-4.1-21.4-16.8,1.7-38.2C391.2,465.5,391.8,473.3,408.2,460.2L408.2,460.2z M243.2,448.5c-15.5,7-20.5,5.9-14.9-3.3c-10,2.6-9.4,0.4,1.7-6.6C236.4,440.2,240.8,443.6,243.2,448.5L243.2,448.5z M734.8,535.2c2.8,12.2,0.5,20.5-6.6,24.9l-16.6-5c-2.2-12.2-8.9-20.5-19.9-24.9c-4.4-22.7-25-27.1-61.7-13.3c5.9-25.1,6.5-47.9,1.7-68.4c5.5-3.1,10.5-5.4,14.9-6.6C705.9,441.5,735.3,472.6,734.8,535.2L734.8,535.2z M479.9,450.2v10c3.7,7.4,5.9,14.6,6.6,21.6c7.9-15.3,19.6-23.1,35.1-23.3l-1.9,5c-6.8,9.6-11.8,19-15,28.2c8.7-0.6,15.4-1.7,20.2-3.3c-6.6,11.4-10.1,22.1-10.2,31.8l6.9,10l49.8,29.9c-64,25.6-116.2,11.8-156.7-41.5c-6.5,9.4-14.2,11.6-23.3,6.6c7.9-6.5,10.7-13.1,8.3-19.9h-5l-26.6-3.3c19.7-13.7,34.7-12,44.8,5l11.6,1.7c24.2-15.9,41.4-35.9,51.8-60.1L479.9,450.2z M548.2,463.5l3.3,3.3c3.9,2,7.2,4.8,10,8.3c4.6,3.7,8.5,7.6,11.6,11.6l8.3,3.3l-1.7,5c8.7,7.2,16.4,11.7,23.3,13.6l-1.7,6.6c6.8,3.1,11.3,7.6,13.6,13.3c-2.8,0.2-5-0.4-6.6-1.7l-8.6-6.6l-3.3-5c-4.8-3.5-8.7-6.8-11.6-10l-3.3-3.3l-5-3.6l-13.3-13.3c-13.1-8.9-23.1-17.2-29.9-24.9l3.3-6.6C541.8,455.8,545.7,459.1,548.2,463.5L548.2,463.5z M55,468.5c-10.7-0.2-16.8-5.2-18.3-14.9C33.1,468.3,39.2,473.3,55,468.5z M243.2,471.8h1.7c-8.7,8.3-8.1,3.9,1.7-13.3C258.4,465,257.3,469.4,243.2,471.8L243.2,471.8z M280,481.7c-6.8,6.3-14.1,10.1-21.9,11.6l-1.7,8.6c-1.1-10.3,1.1-19.3,6.6-26.9C269.4,476.4,275.1,478.6,280,481.7L280,481.7z M259.8,491.7c2.4-2.6,4.1-5.4,5-8.3L259.8,491.7z M115.1,502l-13.3,13.3c-17.5,24.9-38.1,43.2-61.7,54.8c-6.8,0.6-12.9-1.1-18.3-5c7.7-37.8,37.7-60.6,89.9-68.4L115.1,502z M663.1,536.8l5,3.3c15.5-5.2,27.2-2.4,35.1,8.3c-47.2-2.8-76.1,17.3-86.6,60.1c-1.3,13.7-3.5,14.8-6.6,3.3c-1.5-9-0.4-17.3,3.3-24.9c-1.1-2-2.2-3.1-3.3-3.3c-6.3,8.5-9.7,16.8-10.2,24.9c-5.3-1.3-9.8-3.5-13.3-6.6c-5.3-15.3-3.7-28.7,5-40.1c18.5-23.1,40.7-38,66.7-44.8C689.6,519,691.3,525.6,663.1,536.8L663.1,536.8z M283.4,582c-3.5,29-16.3,44.5-38.5,46.5v-5l3.3-1.7l3.3-6.6c5.3-6.3,9.2-12.4,11.6-18.3h-6.6c-9.2,20.9-23.6,30.3-43.2,28.2c36.7-26,50-57.7,39.9-94.9c0.9-1.8,2-3,3.3-3.3c12,10.3,18.7,22,20.2,34.9c5.3-15.9,2-26.4-10-31.5v-8.3C286.3,533,291.9,553,283.4,582L283.4,582z M623.2,541.8c17.2-7.7,33.2-11.6,48.2-11.6v-5l-10-1.7C645.6,527.4,632.8,533.5,623.2,541.8z M295,566.7c5.5-6.3,11.6-10.7,18.3-13.3c21.8-5.3,40.1-14.2,55.1-26.6C353.5,552.3,329.1,565.6,295,566.7L295,566.7z M796.5,546.8l1.7,23.3c4.2,19.9,5.9,36.6,5,50.1c0.9,4.8,3.1,8.1,6.6,10c5.3-9.2,10.9-16.4,16.6-21.6l1.7-5c3.9-5.4,6.6-9.8,8.3-13.3l3.3-3.3c4.2-13.1,9.8-23.7,16.6-31.8v45.1l-1.7,8.3v5c-1.5,11.4-2,20.9-1.7,28.2l-1.7,3.3v5l-3.3,26.9l-1.7,23.3l10-5l3.3-6.6l3.6-3.3l6.6-10l13.3-15.2c2-6.6,4.8-11.6,8.3-15v18.3l-1.7,3.6c0.2,14.8-1.5,27.5-5,38.2l-1.7,11.6c-2.6,5.3-4.2,9.8-5,13.3l-1.7,6.6c-5.2,10.7-8.5,20.2-10,28.5c9.8-1.3,17-6.3,21.6-15c-1.7,5.9-4.4,10.9-8.3,15l-1.7,5c-7.4,8.9-12.4,17.7-14.9,26.6l3.3-5c5-7.9,10-14,15-18.3v-5l3.3-5l3.3-3.3l1.7-10l10-18.5l15-19.9c3.9-12.2,7.7-21.6,11.6-28.2l13.3-36.8v-5l3.3-6.6l1.7-11.6l1.7-10c3.7-10.1,5.5-19.6,5.3-28.2c1.1-1.8,2.2-3,3.3-3.3c7.9,72.1-1.6,137.1-28.5,194.8c-39.1,73.8-99.1,122.1-179.9,145l-16.6,3.3c-12.6,5-23.6,7.8-33.2,8.3l-5,1.7h-5.3c-1.7,1.3-3.3,1.8-5,1.7h-5c-1.7,1.3-3.3,1.8-5,1.7l-5,1.7h-11.6c-1.1,1.3-2.2,1.8-3.3,1.7h-6.6l-3.3,1.7h-6.6c-10.9,2-20.3,2.6-28.2,1.7h-23.5l3.3-3.3c8.7-3.5,16-7.4,21.9-11.6c14.8-20.7,33-34,54.8-40.1h5c7.7-3.3,14.4-5.5,19.9-6.6l-6.6-3.3c-30.3,5.3-55.2,17.1-74.7,35.1c-44.6-3.9-83-16.7-115.1-38.5l-14.9-6.6l-13.3-10h5c22.3,2,41.8,0.9,58.4-3.3l-3.3-3.3c-12.9-1.1-23.5-3.3-31.8-6.6c-47.8-31.4-96.1-38.1-145-20.2v-1.7c39.7-59.6,100.8-77.9,183.5-54.8h48.2l5-1.7l30.2-3.3c26.9-10.5,48-25.6,63.1-45.1h6.6l10.2,15c10,57.6,34.3,89.3,73.1,95.2c4.4-4.1,7.8-8,10-11.9c0-10.1-1.1-19-3.3-26.6l-5-11.6l-3.3-1.7l-3.3-10c-11.8-16-19-31.6-21.6-46.8c19,7.6,30.1,20.9,33.2,40.1c5.9,3.9,11,8.3,15.2,13.3c12.9-1.5,19.6-8.7,19.9-21.6c22.9,2.6,41.2-3,55.1-16.9v-8.3l-3.6-1.7l-8.3-6.6c-17.7-3.9-32.1-9.4-43.2-16.6c-0.2-11.1-2.4-20.5-6.6-28.2c0.6-32.3-8.9-58.9-28.5-80l1.7-6.6v-5l1.7-6.9l3.6-6.6l10-41.5c3.9,6.5,6.1,12.5,6.6,18.3L796.5,546.8z M436.7,553.4c-39.5,4.2-71.2,19.3-95.2,45.1c-6.1-0.4-11.6-1.5-16.6-3.3l1.7-3.3l5-3.3l5-1.7c1.1-1.3,2.2-1.8,3.3-1.7c3.5-2.6,6.8-4.3,10-5.3c4.1-4.6,8.6-7.9,13.6-10c12.6-18.1,26.9-31.4,43.2-39.9C419.8,534.4,429.9,542.1,436.7,553.4L436.7,553.4z M123.4,553.4c-11.1,3-19.4,0.2-24.9-8.3C100,559.5,108.3,562.3,123.4,553.4z M38.4,558.4l-3.3-10C34.7,553.2,35.8,556.6,38.4,558.4z M669.7,560.1c-5.7,10.1-9.6,10.1-11.6,0H669.7z M778.2,613.5c24.9,41.1,24.9,52.2,0,33.2v5c6.8,6.3,11.8,12.5,14.9,18.5c23.1,37.1,11.3,38.2-35.1,3.3c3.5,5.5,6.8,9.4,10,11.6c24.2,21.6,50.8,34.9,80,39.9c2.4,3.7,4.1,7.6,5,11.6c-4.2,4.4-8.7,7.8-13.3,10.2c-40.2-0.6-74.1-12.3-101.6-35.1c-0.9-10.3-2.6-18.6-5-24.9c-2,31.9,5.2,58.6,21.6,80v5c5.7,6.5,9.6,13.1,11.6,19.9c3.1,8.7,3.1,17,0,24.9c-37.1-1.3-60.3-30.7-69.8-88.3c-5.5-7.6-11.2-13.7-16.9-18.3c-9.8-1.3-18.6-1.3-26.6,0c-9.4,5.5-18.3,8.9-26.6,10c-26.4,22.3-49.2,24-68.4,5l3.3-11.6l3.3-1.7c22.1-6.6,39.9-15.5,53.4-26.6l3.3-10c-5.7-63.7,20.4-102,78.3-115.1C736.7,564.9,762.8,582.7,778.2,613.5L778.2,613.5z M98.5,580c17.3,1.3,31.7,5.3,43.2,11.9c5.5,26.2-12.3,32.3-53.4,18.3c-25.1-12-28.4-28.1-10-48.4C87.1,566.5,93.9,572.6,98.5,580L98.5,580z M431.4,563.4c-31.6,6.6-57,20.6-76.4,41.8v-10c19-16.4,38.9-27.6,59.8-33.5C421.1,561.5,426.6,562.1,431.4,563.4L431.4,563.4z M506.4,563.4c12.7,4.6,24.4,4.1,35.1-1.7C528.1,564.1,516.4,564.7,506.4,563.4z M123.4,575l3.3-6.6C135.9,575.2,134.8,577.4,123.4,575z M243.2,582c-3.9,0.2-6.1-1.6-6.6-5.3C240.5,576.7,242.7,578.4,243.2,582z M533.3,583.6l-3.3,5l-11.9,10c-1.1,1.8-2.2,3-3.3,3.3c-3.7,5.2-7.6,9-11.6,11.6c-2.8,3.7-6.1,6.5-10,8.3c-1.1,2-2.2,3.1-3.3,3.3c-1.1,1.3-2.2,1.8-3.3,1.7c-5.9,7-12,12.6-18.3,16.6c-37.8-8.7-66.1,0.3-85,26.9c-2-10.3-2-19.8,0-28.5c19.7-36.3,49.7-57.5,89.9-63.4C497,577.1,517,578.9,533.3,583.6L533.3,583.6z M538.3,598.5l-5,5c-5.2,7.2-10.2,12.7-15.2,16.6l-1.7,3.3l-28.2,33.2l-6.6-1.7l3.3-5c5.5-6.6,9.4-12.7,11.6-18.3l3.3-1.7c3.3-3.9,7.2-7.2,11.6-10l6.6-6.6l1.7-3.3l5.3-5l3.3-5c1.7-1.1,2.8-2.2,3.3-3.3l3.3-1.7c4.1-5.5,7.9-10,11.6-13.3C545.5,588.6,542.7,594.1,538.3,598.5L538.3,598.5z M578.1,596.9l3.3,8.3l3.3,1.7l28.5,18.3c3.5,23.1,1.3,43.6-6.6,61.7l-5.3,3.3l-5,1.7c-1.7,1.3-3.3,1.8-5,1.7l-3.3,3.3l-13.3,3.3c-1.7,1.3-3.3,1.8-5,1.7l-19.9,8.3c-2.8,8.1-3.3,15.3-1.7,21.6c27.1,21.8,58.2,17.9,93.3-11.6c8.3-3,15.5-4.6,21.6-5c-30.6,41.5-77.8,57.1-141.4,46.8c10.1-27.3,8.9-52.3-3.6-75l5.3-5l3.3-8.3l5-3.3l1.7-6.9l3.3-3.3l1.7-5l3.3-5l3.3-6.6l3.3-3.3l1.7-5c1.1-1.8,2.2-3,3.3-3.3l19.9-36.5L578.1,596.9z M159.9,635.1c-18.5,7.6-35.1,5.9-49.8-5v-5c8.5-3.1,17.3-4.3,26.6-3.3c7.6-9.2,15.9-15.9,24.9-19.9C181.1,610.2,180.6,621.3,159.9,635.1L159.9,635.1z M376.6,670.2c-8.1,7.7-14.2,15.5-18.3,23.3l-5,5c-0.6-9-2.9-16.2-6.9-21.6l1.7,36.5h-5l-3.3-3.3v-5l-1.7-13.3l-1.7-10c-4.1-8.5-6.8-16.3-8.3-23.5l-8.3-8.3c-14.9-10.3-25.5-21.4-31.5-33.2c17.9,0.6,30.6,8.3,38.2,23.3l8.3,5c-7.2-13.5-16.6-24-28.2-31.5l3.3-11.6C349.4,609.1,371.7,631.9,376.6,670.2L376.6,670.2z M298.3,605.2c-15,7.4-16.6,6.8-5-1.7L298.3,605.2z M313.3,613.5c16,4.4,28.9,12.2,38.5,23.3c-10.9-15.3-24.3-24.7-40.1-28.2L313.3,613.5z M223.3,635.1c13.3-2.6,24.9-2,34.9,1.7l-1.7,5c-2.2,24-7.8,44.6-16.6,61.7c-19.7,9.4-38.6-11.7-56.5-63.4c8.1-3.5,14.2-6.8,18.3-10C209.8,633,217,634.7,223.3,635.1L223.3,635.1z M190.1,673.6c-12.9-7-19.7-17.6-20.2-31.8C181.1,650.8,187.9,661.4,190.1,673.6z M484.8,671.9c28.4,18.6,40,43,34.9,73.1c-3,10.5-7.9,8.3-15-6.6c-6.8-9.2-14-15.9-21.6-19.9l-1.7,3.3c12.2,10,19.4,21.7,21.6,35.1l-33.2-1.7c-25.6-44.1-61.2-59.1-106.6-45.1c8.9-33.6,32.7-43,71.4-28.2l-6.6-10c-39.9-1.3-42.1-9.7-6.6-25.2C447.1,648,468.2,656.4,484.8,671.9L484.8,671.9z M424.8,660h-6.6C410.4,667,412.6,667,424.8,660z M319.9,678.5l5-1.7C327.6,689.4,326,690,319.9,678.5z M408.2,688.5h-21.6C394.7,690.3,401.9,690.3,408.2,688.5z M363.4,751.9c7.4,9.2,12.9,17.5,16.6,24.9c-25.1,20.1-42.9,42.9-53.4,68.4l5,1.7c23.3-15.7,47.7-22.4,73.3-20.2c9.6,23.6,12.9,46.4,10,68.4c-3.1,10.5-9.2,17.3-18.3,20.2c-114,6.6-200.7-31.7-259.9-115.1l-1.7-6.6c-4.6-10-7.4-18.8-8.3-26.6c1.1-9.8,3.3-18.2,6.6-25.2c26.4-19.9,55.3-29.3,86.6-28.2C276.3,709.7,324.1,722.5,363.4,751.9L363.4,751.9z M431.4,731.7c-3.1,6.3-7.6,7.9-13.3,5c7-4.8,12-9.2,14.9-13.3C438.3,726.7,437.7,729.5,431.4,731.7z M798.2,750.2c-5.2,25.8-14.1,22.4-26.9-10.2L798.2,750.2z M174.9,856.8c-38.2-28.8-57-64.9-56.5-108.2C125,793.6,143.9,829.7,174.9,856.8z M158.3,795.1c4.4,4.2,7.8,8.7,10,13.3c2,1.1,3.1,2.2,3.3,3.3c4.6,3.9,8,7.7,10.2,11.6c7.2,4.4,12.7,9.5,16.6,15.2c57.4,35.4,115.7,54.8,174.9,58.1l26.6-6.6c-54.1,3.9-100.7-7.8-140-34.9c-10.9-0.4-19.2-4.2-24.9-11.6c-8.5-2.2-14.6-6.1-18.3-11.6c-13.3-4.6-23.3-11.9-29.9-21.9l-3.3,5l-5.3-11.6h-6.6c-2.2-3.9-3.9-7.7-5-11.6c-9.6-11.4-15.7-23.6-18.3-36.5C149.4,770,152.8,783.2,158.3,795.1L158.3,795.1z M852.9,803.4c5.3-0.9,6.5-3.1,3.3-6.6L852.9,803.4z M178.2,868.4l6.9,3.3l11.6,10l5,1.7c8.1,7.2,15.3,12.2,21.6,15c-2,1.7-4.2,2.2-6.6,1.7c9.4,8.1,3.9,7.6-16.6-1.7c-13.5-8.9-24.1-17.2-31.8-24.9c3.7-0.2,5.4-2.4,5-6.6L178.2,868.4z"/></g>
</svg>